<svg width="180" height="28" viewBox="0 0 180 28" fill="none" xmlns="http://www.w3.org/2000/svg">
<path fill-rule="evenodd" clip-rule="evenodd" d="M14.5407 26.0095C11.2444 25.5602 8.56131 23.8187 6.64641 21.3983C5.75353 20.2693 5.12484 18.9801 4.66142 17.5936C4.23269 16.3104 4.00615 14.9393 4.07035 13.5041C4.04821 12.6584 4.13381 11.8371 4.28287 11.0402C4.43931 10.2026 4.63412 9.39019 4.94626 8.61833C5.38532 7.53359 5.92843 6.51969 6.64494 5.60836C8.55394 3.18283 11.2436 1.44725 14.5407 0.998601C12.031 0.641449 9.65416 1.04508 7.49576 2.00807C6.49883 2.45303 5.59858 3.03524 4.7544 3.71781C2.74284 5.34344 1.24708 7.57049 0.474484 10.1281C0.151277 11.1981 0.0302546 12.3382 0 13.5041C0.0878121 15.4618 0.482597 17.3353 1.30906 18.9861C2.14955 20.6648 3.30292 22.1443 4.75292 23.2918C7.44263 25.4192 10.8776 26.5084 14.5407 26.0095Z" fill="#111111"/>
<path fill-rule="evenodd" clip-rule="evenodd" d="M22.5391 26C15.3644 26 9.53906 20.3987 9.53906 13.5C9.53906 6.60055 15.3644 1 22.5391 1" fill="#111111"/>
<path d="M36.4991 26.5C37.3311 25.7 37.8431 23.3 37.8431 20.676V6.692C37.8431 4.068 37.3311 1.668 36.4991 0.867998H52.3071V3.364C51.5071 2.532 50.3551 1.508 46.4831 1.508H42.9311C40.3071 1.508 40.2431 4.068 40.2431 6.692V13.284C40.9471 12.036 42.2271 11.556 44.1471 11.556H45.2031C47.8271 11.556 50.2271 10.692 51.0271 9.86V13.892C50.2271 13.06 47.8271 12.196 45.2031 12.196H44.1471C41.5231 12.196 40.2431 13.188 40.2431 16.42V20.676C40.2431 23.3 40.3071 25.86 42.9631 25.86H46.2591C50.4831 25.86 52.2111 23.972 52.9471 23.14L52.1791 25.86L51.9871 26.5H36.4991ZM62.8816 26.5C63.7136 25.7 64.2256 23.3 64.2256 20.676V6.692C64.2256 4.068 63.7136 1.668 62.8816 0.867998H66.3696C67.8736 0.867998 68.5136 0.387999 69.9216 0.387999C75.3936 0.387999 80.3536 4.708 80.3536 13.668C80.3536 22.692 75.3936 27.012 70.6256 27.012C68.3536 27.012 67.9376 26.5 66.6256 26.5H62.8816ZM66.6256 20.676C66.6256 25.124 69.1856 26.308 71.0416 26.308C74.5936 26.308 78.3696 23.428 77.5696 13.668C76.7696 3.94 72.3536 1.028 69.7936 1.028C66.8176 1.028 66.6256 4.068 66.6256 6.66V20.676ZM90.2641 26.5C91.0961 25.7 91.6081 23.3 91.6081 20.676V6.692C91.6081 4.068 91.0961 1.668 90.2641 0.867998H106.072V3.364C105.272 2.532 104.12 1.508 100.248 1.508H96.6961C94.0721 1.508 94.0081 4.068 94.0081 6.692V13.284C94.7121 12.036 95.9921 11.556 97.9121 11.556H98.9681C101.592 11.556 103.992 10.692 104.792 9.86V13.892C103.992 13.06 101.592 12.196 98.9681 12.196H97.9121C95.2881 12.196 94.0081 13.188 94.0081 16.42V20.676C94.0081 23.3 94.0721 25.86 96.7281 25.86H100.024C104.248 25.86 105.976 23.972 106.712 23.14L105.944 25.86L105.752 26.5H90.2641ZM133.223 26.5L121.191 6.468C120.615 5.54 120.039 4.644 119.463 3.844V20.676C119.463 23.3 119.975 25.7 120.807 26.5H117.479C118.311 25.7 118.823 23.3 118.823 20.676V3.012C117.991 1.956 117.159 1.156 116.487 0.867998H122.055C121.607 1.764 122.535 3.876 124.071 6.468L133.223 21.732V6.692C133.223 4.068 132.711 1.668 131.879 0.867998H135.207C134.375 1.668 133.863 4.068 133.863 6.692V26.5H133.223ZM145.435 26.5C146.267 25.7 146.779 23.3 146.779 20.676V6.692C146.779 4.068 146.267 1.668 145.435 0.867998H150.523C149.691 1.668 149.179 4.068 149.179 6.692V20.676C149.179 23.3 149.691 25.7 150.523 26.5H145.435ZM170.085 27.012C164.613 27.012 159.717 22.692 159.717 13.668C159.717 4.708 164.613 0.387999 170.085 0.387999C172.293 0.387999 174.437 1.092 176.197 2.532L173.733 5.668C172.965 2.692 170.789 1.252 168.965 1.252C165.445 1.252 161.701 3.94 162.501 13.668C163.301 23.428 167.685 25.508 171.205 25.508C173.509 25.508 175.685 24.868 177.829 22.02L178.341 22.404C176.389 25.508 173.317 27.012 170.085 27.012Z" fill="#111111"/>
</svg>
